#!OML:ASF X:\für Bonn\!DataBase\2005_08_12_Daniel\c3d\Daniel.ASF
:FULLY-SPECIFIED
:DEGREES
31
root -4.05835 16.4911 -0.936019 206.344 -88.7917 -217.719
lowerback 25.143 -1.89883 2.40082
upperback 0.311811 -2.26066 -2.31615
thorax -13.9951 -1.35181 -3.2061
lowerneck 4.02228 2.23066 -2.16277
upperneck 2.39508 2.84132 0.544763
head 0.0323966 1.38482 0.484053
rclavicle 1.95632e-014 1.23246e-014
rhumerus 69.3193 -25.7665 -164.045
rradius 9.10901
rwrist 131.711
rhand -19.3063 11.6532
rfingers 7.12502
rthumb 7.00947 -18.2108
lclavicle 1.95632e-014 1.23246e-014
lhumerus 58.678 14.8246 116.107
lradius 8.85036
lwrist -90.2039
lhand -16.0517 1.16736
lfingers 7.12502
lthumb 10.1503 30.9025
rfemur -6.45941 -7.7405 11.6444
rtibia 44.3497
rfoot 335.46 2.01922
rtoes -12.0496
lfemur -190.606 179.037 -194.964
ltibia 49.1858
lfoot -27.7431 -5.02145
ltoes -0.538927
32
root -4.05115 16.4129 -0.934327 204.567 -88.74 -216.231
lowerback 25.6234 -1.89211 2.40722
upperback 0.377256 -2.24914 -2.32299
thorax -14.1855 -1.351 -3.21666
lowerneck 4.1253 2.2217 -2.18135
upperneck 2.3268 2.82587 0.556085
head -0.0053806 1.37722 0.489236
rclavicle -1.74309e-014 3.18055e-015
rhumerus 69.3313 -25.4621 -163.94
rradius 9.08848
rwrist 131.437
rhand -19.3364 11.6334
rfingers 7.12502
rthumb 6.9804 -18.2315
lclavicle -1.74309e-014 3.18055e-015
lhumerus 58.7992 14.7906 116.219
lradius 8.85199
lwrist -90.348
lhand -15.8058 1.14422
lfingers 7.12502
lthumb 10.3875 30.8676
rfemur -7.22965 -8.72111 11.2074
rtibia 46.1902
rfoot 335.459 3.20635
rtoes -11.7319
lfemur -191.093 178.212 -194.689
ltibia 50.5301
lfoot -28.0125 -5.9331
ltoes -0.471284
33
root -4.04315 16.3305 -0.932635 203.169 -88.6735 -215.142
lowerback 26.1548 -1.89008 2.39594
upperback 0.445305 -2.24873 -2.32776
thorax -14.4004 -1.35438 -3.21006
lowerneck 4.16746 2.22504 -2.19451
upperneck 2.30281 2.82854 0.563293
head -0.0199003 1.3785 0.492977
rclavicle 8.23714e-015 -1.23246e-014
rhumerus 69.3564 -25.1221 -163.836
rradius 9.01871
rwrist 131.197
rhand -19.4192 11.6567
rfingers 7.12502
rthumb 6.90046 -18.2108
lclavicle 8.23714e-015 -1.23246e-014
lhumerus 58.9057 14.7721 116.336
lradius 8.94119
lwrist -90.5579
lhand -15.4564 1.15158
lfingers 7.12502
lthumb 10.7246 30.8578
rfemur -8.01211 -9.71395 10.7341
rtibia 48.0831
rfoot 335.465 4.41085
rtoes -11.3995
lfemur -191.581 177.414 -194.425
ltibia 51.9254
lfoot -28.3036 -6.81596
ltoes -0.405155
34
root -4.03562 16.2431 -0.931135 202.269 -88.6214 -214.542
lowerback 26.6561 -1.8893 2.38197
upperback 0.523184 -2.25245 -2.33711
thorax -14.5861 -1.35935 -3.20599
lowerneck 4.19753 2.22249 -2.14479
upperneck 2.27449 2.82677 0.527531
head -0.0320023 1.37827 0.473393
rclavicle -5.1684e-015 -7.15625e-015
rhumerus 69.4156 -24.7428 -163.756
rradius 8.93629
rwrist 130.987
rhand -19.496 11.6435
rfingers 7.12502
rthumb 6.82639 -18.2265
lclavicle -5.1684e-015 -7.15625e-015
lhumerus 59.009 14.7318 116.451
lradius 9.06703
lwrist -90.8845
lhand -15.0904 1.21765
lfingers 7.12502
lthumb 11.0776 30.9053
rfemur -8.82096 -10.6951 10.249
rtibia 50.0201
rfoot 335.478 5.60856
rtoes -11.0474
lfemur -192.114 176.621 -194.15
ltibia 53.3764
lfoot -28.6433 -7.70863
ltoes -0.424595
35
root -4.0279 16.1511 -0.929788 201.36 -88.5697 -213.95
lowerback 27.1928 -1.89135 2.38697
upperback 0.585747 -2.25615 -2.3619
thorax -14.8103 -1.36717 -3.23088
lowerneck 4.26624 2.21582 -2.10506
upperneck 2.25872 2.81746 0.53533
head -0.047389 1.37374 0.46854
rclavicle 4.78947e-015 9.14409e-015
rhumerus 69.4861 -24.4084 -163.697
rradius 8.84997
rwrist 130.748
rhand -19.5941 11.6879
rfingers 7.12502
rthumb 6.73165 -18.1851
lclavicle 4.78947e-015 9.14409e-015
lhumerus 59.0377 14.7176 116.521
lradius 9.22275
lwrist -91.3273
lhand -14.8369 1.23663
lfingers 7.12502
lthumb 11.322 30.911
rfemur -9.63366 -11.6527 9.74973
rtibia 52.0035
rfoot 335.505 6.81254
rtoes -10.746
lfemur -192.645 175.855 -193.868
ltibia 54.8729
lfoot -29.0186 -8.58163
ltoes -0.394295
36
root -4.02011 16.0535 -0.929258 200.352 -88.5094 -213.282
lowerback 27.7153 -1.89052 2.37739
upperback 0.337059 -2.26994 -2.4932
thorax -14.6354 -1.34414 -3.13064
lowerneck 4.30078 2.22053 -2.12823
upperneck 2.22133 2.8219 0.567047
head -0.0653714 1.37595 0.481411
rclavicle -3.82039e-015 7.55382e-015
rhumerus 69.5481 -24.0354 -163.623
rradius 8.76143
rwrist 130.571
rhand -19.6657 11.6574
rfingers 7.12502
rthumb 6.66257 -18.2178
lclavicle -3.82039e-015 7.55382e-015
lhumerus 59.0996 14.696 116.612
lradius 9.39113
lwrist -91.6822
lhand -14.6779 1.26729
lfingers 7.12502
lthumb 11.4754 30.9332
rfemur -10.4339 -12.5532 9.24208
rtibia 54.0156
rfoot 335.566 8.0052
rtoes -10.4999
lfemur -193.181 175.112 -193.577
ltibia 56.4211
lfoot -29.4308 -9.41895
ltoes -0.47908
